<?xml version="1.0" standalone="no"?>
<!DOCTYPE svg PUBLIC "-//W3C//DTD SVG 20010904//EN"
 "http://www.w3.org/TR/2001/REC-SVG-20010904/DTD/svg10.dtd">
<svg version="1.0" xmlns="http://www.w3.org/2000/svg"
 width="1830.000000pt" height="1830.000000pt" viewBox="0 0 1830.000000 1830.000000"
 preserveAspectRatio="xMidYMid meet">
<metadata>
Created by potrace 1.11, written by Peter Selinger 2001-2013
</metadata>
<g transform="translate(0.000000,1830.000000) scale(0.100000,-0.100000)"
fill="#000000" stroke="none">
<path d="M9020 16743 c-1115 -39 -2092 -580 -2694 -1491 -157 -238 -275 -474
-388 -775 -39 -107 -69 -172 -87 -190 -20 -20 -87 -51 -233 -107 -272 -103
-436 -172 -713 -297 -642 -291 -975 -502 -1290 -818 -282 -281 -454 -549 -614
-950 -205 -512 -263 -968 -181 -1421 122 -677 581 -1316 1419 -1977 85 -67
201 -162 259 -212 129 -112 324 -265 336 -265 6 0 6 228 0 593 -15 1008 -10
1196 46 1478 94 470 355 849 825 1199 792 587 1829 988 2852 1100 380 41 701
49 1058 25 496 -33 916 -106 1390 -240 739 -210 1183 -439 1612 -831 482 -440
896 -1406 1087 -2534 37 -216 85 -632 86 -732 0 -28 21 -21 86 30 108 84 179
152 312 296 523 568 854 1089 1044 1646 109 320 154 561 165 876 17 538 -120
988 -445 1459 -495 718 -1204 1322 -1805 1540 -164 59 -373 109 -544 130 l-52
7 -21 66 c-138 430 -547 1109 -855 1418 -298 301 -846 616 -1370 790 -312 103
-653 167 -943 179 -75 3 -166 7 -202 8 -36 2 -99 2 -140 0z"/>
<path d="M6693 9745 c-181 -33 -275 -81 -465 -241 -54 -46 -121 -98 -149 -116
-47 -30 -99 -101 -85 -115 3 -3 81 23 173 57 203 75 286 97 422 112 206 23
500 -25 940 -152 228 -66 501 -164 489 -176 -2 -1 -50 1 -108 6 -672 58 -1305
54 -1992 -10 -392 -37 -544 -84 -603 -184 -33 -57 -39 -113 -30 -281 l7 -137
77 -35 c153 -69 156 -71 180 -120 12 -25 58 -185 102 -357 147 -573 227 -764
389 -926 202 -202 476 -279 1105 -311 507 -25 880 32 1135 174 134 75 267 195
349 315 113 167 191 357 291 707 63 224 75 254 118 319 55 82 103 118 189 142
80 22 189 15 261 -16 66 -29 136 -103 173 -186 16 -36 52 -144 80 -242 81
-282 107 -359 170 -491 114 -238 244 -396 420 -511 184 -119 390 -179 704
-206 165 -15 225 -15 450 -5 477 21 756 70 947 167 140 71 260 195 341 353 74
142 119 277 227 672 50 184 102 357 115 385 24 48 32 55 125 104 55 29 104 58
109 64 15 18 32 227 25 304 -3 37 -10 91 -15 119 l-10 52 -92 30 c-248 79
-561 121 -1057 142 -390 16 -980 3 -1418 -32 -74 -6 -136 -8 -139 -5 -9 9 130
69 267 115 134 46 437 129 583 161 208 46 458 67 597 51 133 -15 188 -31 373
-110 89 -38 173 -72 185 -76 22 -6 23 -5 11 17 -16 31 -119 131 -206 200 -154
123 -342 228 -473 264 -79 22 -341 24 -490 5 -262 -33 -775 -114 -841 -132
-41 -11 -110 -38 -155 -60 -120 -59 -190 -134 -348 -374 -137 -207 -197 -279
-263 -311 -44 -22 -115 -23 -430 -9 -160 7 -216 5 -340 -10 -125 -15 -160 -16
-220 -6 -155 27 -306 158 -441 382 -45 75 -99 158 -120 183 -45 54 -125 117
-194 152 -99 50 -291 93 -493 109 -44 4 -174 22 -290 40 -358 58 -511 68 -662
40z m867 -775 c579 -37 948 -117 1079 -236 138 -124 152 -274 66 -708 -135
-683 -396 -974 -955 -1064 -147 -23 -626 -23 -828 1 -246 29 -451 79 -556 135
-159 86 -329 380 -417 727 -111 433 -84 835 67 977 93 87 370 138 939 171 129
8 456 6 605 -3z m4550 -14 c260 -32 446 -86 545 -157 184 -132 176 -614 -19
-1211 -137 -420 -234 -503 -692 -592 -256 -50 -364 -60 -629 -60 -263 -1 -327
5 -509 50 -330 81 -579 276 -692 544 -90 214 -187 589 -214 832 -28 248 76
392 340 472 229 69 535 114 960 140 30 2 217 2 415 1 261 -2 397 -7 495 -19z"/>
<path d="M13466 7478 c-8 -13 -69 -183 -135 -378 -171 -510 -236 -682 -359
-962 -177 -398 -535 -1058 -706 -1301 l-59 -84 -48 72 c-105 157 -359 414
-502 508 -170 113 -247 144 -797 318 -541 172 -736 214 -895 191 -45 -7 -151
-36 -236 -65 l-154 -52 -150 1 c-163 2 -179 5 -385 80 -101 37 -110 39 -225
38 -104 0 -141 -6 -270 -38 -82 -21 -269 -77 -415 -126 -146 -49 -329 -107
-408 -130 -270 -78 -378 -126 -526 -231 -131 -93 -280 -245 -503 -513 -43 -51
-98 -154 -89 -164 7 -6 95 11 298 58 252 60 317 68 663 80 743 26 934 40 1190
90 188 37 293 67 466 135 221 86 168 89 508 -25 415 -138 553 -161 1111 -180
445 -15 699 -29 808 -46 128 -19 455 -85 465 -95 5 -4 -31 -56 -80 -115 -153
-187 -252 -333 -368 -544 -323 -592 -570 -856 -978 -1050 -404 -191 -771 -208
-917 -43 -99 112 -99 277 1 558 58 165 103 216 269 304 357 191 570 396 644
618 14 43 26 81 26 85 0 9 -52 -11 -270 -104 -196 -84 -328 -128 -470 -158
-99 -22 -132 -23 -545 -26 -242 -1 -496 2 -565 8 -244 19 -410 67 -713 205
-103 47 -190 84 -192 81 -8 -7 25 -108 52 -163 83 -165 273 -347 508 -485 50
-29 125 -73 169 -99 120 -70 167 -134 219 -296 48 -149 60 -208 61 -305 1 -82
-3 -102 -25 -150 -46 -98 -117 -150 -238 -176 -284 -60 -726 86 -1056 351
-229 183 -367 359 -580 740 -101 181 -203 336 -300 455 -436 534 -841 1240
-1145 1995 -89 220 -139 356 -251 677 -50 145 -110 310 -132 367 -41 104 -41
104 -50 70 -14 -51 0 -467 23 -686 53 -512 174 -1232 267 -1598 96 -378 302
-797 611 -1245 284 -412 476 -666 656 -869 225 -256 814 -842 936 -932 283
-210 609 -338 1005 -393 401 -57 1009 -46 1420 24 311 53 562 145 762 279 181
122 591 499 827 761 387 431 824 1008 1058 1400 206 344 369 716 442 1010 98
395 219 1131 266 1622 21 213 39 668 27 668 -4 0 -13 -10 -21 -22z"/>
</g>
</svg>
